<svg xmlns="http://www.w3.org/2000/svg" viewBox="0 0 100 100">
  <!-- Background Circle -->
  <circle cx="50" cy="50" r="48" fill="#1E1E3F" stroke="#4ECDC4" stroke-width="2"/>
  
  <!-- "S" Monogram -->
  <path d="M 35 30 C 35 25, 45 25, 45 30 C 45 35, 35 40, 35 45 C 35 50, 45 50, 45 45" 
        stroke="#FFFFFF" stroke-width="4" fill="none" stroke-linecap="round"/>
  
  <!-- Thread decoration -->
  <path d="M 55 30 C 55 45, 65 45, 65 30" 
        stroke="#4ECDC4" stroke-width="4" fill="none" stroke-linecap="round"/>
  
  <!-- Circular text path -->
  <path id="textPath" d="M 50 22 A 28 28 0 1 1 49.999 22" fill="none"/>
  
  <!-- Text on path -->
  <text font-family="Arial, sans-serif" font-size="8" fill="#FFFFFF" font-weight="bold">
    <textPath href="#textPath" startOffset="5%">SIUUFIAN CLOTHING</textPath>
  </text>
  
  <!-- Year -->
  <text x="50" y="68" font-family="Arial, sans-serif" font-size="8" fill="#4ECDC4" text-anchor="middle">EST. 2025</text>
  
  <!-- Needle icon -->
  <g transform="translate(50, 55) scale(0.2)">
    <path d="M -40 -30 L 40 -30 L 40 -35 L -40 -35 Z" fill="#DDDDDD"/>
    <path d="M 20 -35 L 20 -50 L 25 -50 L 25 -35 Z" fill="#DDDDDD"/>
    <path d="M 22.5 -50 C 22.5 -60, 0 -70, -10 -60 C -20 -50, -20 -20, 0 -10 C 20 0, 40 -20, 30 -40" 
          stroke="#4ECDC4" stroke-width="4" fill="none" stroke-linecap="round"/>
    <circle cx="22.5" cy="-42.5" r="3" fill="#1E1E3F"/>
  </g>
</svg>
